<svg width="181" height="43" viewBox="0 0 181 43" fill="none" xmlns="http://www.w3.org/2000/svg">
<path d="M18.8887 16.0905C19.2175 16.3895 19.7825 16.3895 20.1113 16.0905L37.5589 0.225632C38.0705 -0.239531 39 0.0625787 39 0.694013V28.1603C39 28.3556 38.9012 28.5418 38.728 28.6731L20.0577 42.8202C19.7414 43.0599 19.2586 43.0599 18.9423 42.8202L0.272046 28.6731C0.0987941 28.5418 0 28.3556 0 28.1603V0.694015C0 0.0625811 0.929501 -0.239529 1.44107 0.225633L18.8887 16.0905Z" fill="white"/>
<path fill-rule="evenodd" clip-rule="evenodd" d="M39 28.1633C38.999 28.3575 38.9003 28.5425 38.728 28.6731L20.0577 42.8202C19.7744 43.0349 19.3577 43.0573 19.0465 42.8875V16.2024C19.3776 16.3831 19.8305 16.3458 20.1113 16.0905L37.5589 0.225632C37.7295 0.0705562 37.9465 0.000756649 38.16 6.121e-06C38.1623 -2.04381e-06 38.1646 -2.03685e-06 38.167 6.121e-06C38.5904 0.0014937 38.998 0.274011 39 0.690881V28.1633Z" fill="white"/>
<path d="M54.984 18.14C54.1253 18.14 53.3787 18 52.744 17.72C52.1093 17.44 51.6147 17.02 51.26 16.46C50.9053 15.8907 50.7093 15.1813 50.672 14.332C50.6627 13.9307 50.658 13.5293 50.658 13.128C50.658 12.7267 50.6627 12.3207 50.672 11.91C50.7093 11.07 50.9053 10.3653 51.26 9.796C51.624 9.21733 52.1233 8.78333 52.758 8.494C53.3927 8.20467 54.1347 8.06 54.984 8.06C55.824 8.06 56.5613 8.20467 57.196 8.494C57.84 8.78333 58.344 9.21733 58.708 9.796C59.072 10.3653 59.268 11.07 59.296 11.91C59.3147 12.3207 59.324 12.7267 59.324 13.128C59.324 13.5293 59.3147 13.9307 59.296 14.332C59.2587 15.1813 59.0627 15.8907 58.708 16.46C58.3533 17.02 57.8587 17.44 57.224 17.72C56.5893 18 55.8427 18.14 54.984 18.14ZM54.984 16.124C55.4787 16.124 55.88 15.9747 56.188 15.676C56.5053 15.3773 56.6733 14.9013 56.692 14.248C56.7107 13.8373 56.72 13.45 56.72 13.086C56.72 12.722 56.7107 12.344 56.692 11.952C56.6733 11.5133 56.5893 11.1587 56.44 10.888C56.3 10.608 56.104 10.4027 55.852 10.272C55.6 10.1413 55.3107 10.076 54.984 10.076C54.6667 10.076 54.382 10.1413 54.13 10.272C53.878 10.4027 53.6773 10.608 53.528 10.888C53.3787 11.1587 53.2947 11.5133 53.276 11.952C53.2667 12.344 53.262 12.722 53.262 13.086C53.262 13.45 53.2667 13.8373 53.276 14.248C53.304 14.9013 53.472 15.3773 53.78 15.676C54.088 15.9747 54.4893 16.124 54.984 16.124ZM61.2968 18C61.1941 18 61.1101 17.9673 61.0448 17.902C60.9795 17.8367 60.9468 17.7527 60.9468 17.65V8.55C60.9468 8.44733 60.9795 8.36333 61.0448 8.298C61.1101 8.23267 61.1941 8.2 61.2968 8.2H65.5668C66.3695 8.2 67.0275 8.312 67.5408 8.536C68.0541 8.76 68.4321 9.082 68.6748 9.502C68.9268 9.91267 69.0528 10.4027 69.0528 10.972C69.0528 11.308 68.9875 11.6067 68.8568 11.868C68.7355 12.12 68.5815 12.33 68.3948 12.498C68.2175 12.666 68.0495 12.7873 67.8908 12.862C68.2455 13.03 68.5581 13.3053 68.8288 13.688C69.1088 14.0707 69.2488 14.5187 69.2488 15.032C69.2488 15.648 69.1088 16.18 68.8288 16.628C68.5581 17.0667 68.1568 17.4073 67.6248 17.65C67.1021 17.8833 66.4581 18 65.6928 18H61.2968ZM63.4528 16.18H65.4128C65.8141 16.18 66.1175 16.0633 66.3228 15.83C66.5281 15.5967 66.6308 15.3307 66.6308 15.032C66.6308 14.7053 66.5235 14.43 66.3088 14.206C66.1035 13.982 65.8048 13.87 65.4128 13.87H63.4528V16.18ZM63.4528 12.092H65.2868C65.6695 12.092 65.9541 11.994 66.1408 11.798C66.3368 11.602 66.4348 11.35 66.4348 11.042C66.4348 10.7433 66.3368 10.5007 66.1408 10.314C65.9541 10.118 65.6695 10.02 65.2868 10.02H63.4528V12.092ZM71.1542 18C71.0516 18 70.9676 17.9673 70.9022 17.902C70.8369 17.8367 70.8042 17.7527 70.8042 17.65V8.55C70.8042 8.44733 70.8369 8.36333 70.9022 8.298C70.9676 8.23267 71.0516 8.2 71.1542 8.2H77.6922C77.7949 8.2 77.8789 8.23267 77.9442 8.298C78.0096 8.36333 78.0422 8.44733 78.0422 8.55V9.866C78.0422 9.96867 78.0096 10.0527 77.9442 10.118C77.8789 10.1833 77.7949 10.216 77.6922 10.216H73.2262V12.106H77.3842C77.4869 12.106 77.5709 12.1433 77.6362 12.218C77.7016 12.2833 77.7342 12.3673 77.7342 12.47V13.688C77.7342 13.7813 77.7016 13.8653 77.6362 13.94C77.5709 14.0053 77.4869 14.038 77.3842 14.038H73.2262V15.984H77.8042C77.9069 15.984 77.9909 16.0167 78.0562 16.082C78.1216 16.1473 78.1542 16.2313 78.1542 16.334V17.65C78.1542 17.7527 78.1216 17.8367 78.0562 17.902C77.9909 17.9673 77.9069 18 77.8042 18H71.1542ZM83.6816 18.14C82.7949 18.14 82.0343 17.9953 81.3996 17.706C80.7743 17.4167 80.2843 16.992 79.9296 16.432C79.5843 15.872 79.3929 15.1767 79.3556 14.346C79.3463 13.9633 79.3416 13.5527 79.3416 13.114C79.3416 12.6753 79.3463 12.2553 79.3556 11.854C79.3929 11.042 79.5889 10.356 79.9436 9.796C80.2983 9.22667 80.7929 8.79733 81.4276 8.508C82.0623 8.20933 82.8136 8.06 83.6816 8.06C84.2976 8.06 84.8669 8.13933 85.3896 8.298C85.9123 8.44733 86.3696 8.67133 86.7616 8.97C87.1536 9.25933 87.4569 9.614 87.6716 10.034C87.8956 10.4447 88.0123 10.9113 88.0216 11.434C88.0309 11.518 88.0029 11.588 87.9376 11.644C87.8816 11.7 87.8116 11.728 87.7276 11.728H85.8376C85.7163 11.728 85.6229 11.7047 85.5576 11.658C85.4923 11.602 85.4363 11.504 85.3896 11.364C85.2589 10.8693 85.0443 10.5333 84.7456 10.356C84.4563 10.1693 84.0969 10.076 83.6676 10.076C83.1543 10.076 82.7483 10.2207 82.4496 10.51C82.1509 10.79 81.9876 11.2613 81.9596 11.924C81.9316 12.6893 81.9316 13.4733 81.9596 14.276C81.9876 14.9387 82.1509 15.4147 82.4496 15.704C82.7483 15.984 83.1543 16.124 83.6676 16.124C84.0969 16.124 84.4609 16.0307 84.7596 15.844C85.0583 15.6573 85.2683 15.3213 85.3896 14.836C85.4269 14.696 85.4783 14.6027 85.5436 14.556C85.6183 14.5 85.7163 14.472 85.8376 14.472H87.7276C87.8116 14.472 87.8816 14.5 87.9376 14.556C88.0029 14.612 88.0309 14.682 88.0216 14.766C88.0123 15.2887 87.8956 15.76 87.6716 16.18C87.4569 16.5907 87.1536 16.9453 86.7616 17.244C86.3696 17.5333 85.9123 17.7573 85.3896 17.916C84.8669 18.0653 84.2976 18.14 83.6816 18.14ZM89.8437 18C89.741 18 89.657 17.9673 89.5917 17.902C89.5263 17.8367 89.4937 17.7527 89.4937 17.65V8.55C89.4937 8.44733 89.5263 8.36333 89.5917 8.298C89.657 8.23267 89.741 8.2 89.8437 8.2H91.3277C91.4863 8.2 91.5983 8.23733 91.6637 8.312C91.7383 8.37733 91.785 8.42867 91.8037 8.466L95.2197 13.856V8.55C95.2197 8.44733 95.2523 8.36333 95.3177 8.298C95.383 8.23267 95.467 8.2 95.5697 8.2H97.2497C97.3523 8.2 97.4363 8.23267 97.5017 8.298C97.567 8.36333 97.5997 8.44733 97.5997 8.55V17.65C97.5997 17.7433 97.567 17.8273 97.5017 17.902C97.4363 17.9673 97.3523 18 97.2497 18H95.7517C95.6023 18 95.4903 17.9627 95.4157 17.888C95.3503 17.8133 95.3083 17.762 95.2897 17.734L91.8737 12.554V17.65C91.8737 17.7527 91.841 17.8367 91.7757 17.902C91.7103 17.9673 91.6263 18 91.5237 18H89.8437ZM99.9062 18C99.8035 18 99.7195 17.9673 99.6542 17.902C99.5888 17.8367 99.5562 17.7527 99.5562 17.65V8.55C99.5562 8.44733 99.5888 8.36333 99.6542 8.298C99.7195 8.23267 99.8035 8.2 99.9062 8.2H101.782C101.885 8.2 101.969 8.23267 102.034 8.298C102.1 8.36333 102.132 8.44733 102.132 8.55V17.65C102.132 17.7527 102.1 17.8367 102.034 17.902C101.969 17.9673 101.885 18 101.782 18H99.9062ZM99.9762 7.5C99.8268 7.5 99.7522 7.42533 99.7522 7.276C99.7522 7.20133 99.7755 7.14067 99.8222 7.094L101.054 5.596C101.148 5.484 101.227 5.414 101.292 5.386C101.358 5.34867 101.451 5.33 101.572 5.33H103.532C103.71 5.33 103.798 5.42333 103.798 5.61C103.798 5.67533 103.775 5.73133 103.728 5.778L101.866 7.304C101.792 7.36933 101.717 7.42067 101.642 7.458C101.568 7.486 101.465 7.5 101.334 7.5H99.9762ZM107.426 18C107.323 18 107.239 17.9673 107.174 17.902C107.108 17.8367 107.076 17.7527 107.076 17.65V8.55C107.076 8.44733 107.108 8.36333 107.174 8.298C107.239 8.23267 107.323 8.2 107.426 8.2H109.19C109.292 8.2 109.376 8.23267 109.442 8.298C109.507 8.36333 109.54 8.44733 109.54 8.55V11.658L112.13 8.466C112.167 8.41 112.228 8.354 112.312 8.298C112.405 8.23267 112.526 8.2 112.676 8.2H114.692C114.776 8.2 114.846 8.23267 114.902 8.298C114.958 8.354 114.986 8.41933 114.986 8.494C114.986 8.55933 114.967 8.61533 114.93 8.662L111.584 12.89L115.196 17.538C115.233 17.5753 115.252 17.6313 115.252 17.706C115.252 17.7807 115.219 17.8507 115.154 17.916C115.098 17.972 115.032 18 114.958 18H112.872C112.704 18 112.573 17.9627 112.48 17.888C112.396 17.8133 112.34 17.7573 112.312 17.72L109.54 14.262V17.65C109.54 17.7527 109.507 17.8367 109.442 17.902C109.376 17.9673 109.292 18 109.19 18H107.426ZM116.695 18C116.593 18 116.509 17.9673 116.443 17.902C116.378 17.8367 116.345 17.7527 116.345 17.65V8.55C116.345 8.44733 116.378 8.36333 116.443 8.298C116.509 8.23267 116.593 8.2 116.695 8.2H118.179C118.338 8.2 118.45 8.23733 118.515 8.312C118.59 8.37733 118.637 8.42867 118.655 8.466L122.071 13.856V8.55C122.071 8.44733 122.104 8.36333 122.169 8.298C122.235 8.23267 122.319 8.2 122.421 8.2H124.101C124.204 8.2 124.288 8.23267 124.353 8.298C124.419 8.36333 124.451 8.44733 124.451 8.55V17.65C124.451 17.7433 124.419 17.8273 124.353 17.902C124.288 17.9673 124.204 18 124.101 18H122.603C122.454 18 122.342 17.9627 122.267 17.888C122.202 17.8133 122.16 17.762 122.141 17.734L118.725 12.554V17.65C118.725 17.7527 118.693 17.8367 118.627 17.902C118.562 17.9673 118.478 18 118.375 18H116.695ZM126.758 18C126.655 18 126.571 17.9673 126.506 17.902C126.44 17.8367 126.408 17.7527 126.408 17.65V8.55C126.408 8.44733 126.44 8.36333 126.506 8.298C126.571 8.23267 126.655 8.2 126.758 8.2H128.634C128.736 8.2 128.82 8.23267 128.886 8.298C128.951 8.36333 128.984 8.44733 128.984 8.55V17.65C128.984 17.7527 128.951 17.8367 128.886 17.902C128.82 17.9673 128.736 18 128.634 18H126.758ZM131.297 18C131.194 18 131.11 17.9673 131.045 17.902C130.979 17.8367 130.947 17.7527 130.947 17.65V8.55C130.947 8.44733 130.979 8.36333 131.045 8.298C131.11 8.23267 131.194 8.2 131.297 8.2H133.103C133.205 8.2 133.289 8.23267 133.355 8.298C133.42 8.36333 133.453 8.44733 133.453 8.55V11.924H136.911V8.55C136.911 8.44733 136.943 8.36333 137.009 8.298C137.074 8.23267 137.158 8.2 137.261 8.2H139.067C139.169 8.2 139.253 8.23267 139.319 8.298C139.384 8.36333 139.417 8.44733 139.417 8.55V17.65C139.417 17.7527 139.384 17.8367 139.319 17.902C139.253 17.9673 139.169 18 139.067 18H137.261C137.158 18 137.074 17.9673 137.009 17.902C136.943 17.8367 136.911 17.7527 136.911 17.65V14.164H133.453V17.65C133.453 17.7527 133.42 17.8367 133.355 17.902C133.289 17.9673 133.205 18 133.103 18H131.297ZM145.382 18.14C144.524 18.14 143.777 18 143.142 17.72C142.508 17.44 142.013 17.02 141.658 16.46C141.304 15.8907 141.108 15.1813 141.07 14.332C141.061 13.9307 141.056 13.5293 141.056 13.128C141.056 12.7267 141.061 12.3207 141.07 11.91C141.108 11.07 141.304 10.3653 141.658 9.796C142.022 9.21733 142.522 8.78333 143.156 8.494C143.791 8.20467 144.533 8.06 145.382 8.06C146.222 8.06 146.96 8.20467 147.594 8.494C148.238 8.78333 148.742 9.21733 149.106 9.796C149.47 10.3653 149.666 11.07 149.694 11.91C149.713 12.3207 149.722 12.7267 149.722 13.128C149.722 13.5293 149.713 13.9307 149.694 14.332C149.657 15.1813 149.461 15.8907 149.106 16.46C148.752 17.02 148.257 17.44 147.622 17.72C146.988 18 146.241 18.14 145.382 18.14ZM145.382 16.124C145.877 16.124 146.278 15.9747 146.586 15.676C146.904 15.3773 147.072 14.9013 147.09 14.248C147.109 13.8373 147.118 13.45 147.118 13.086C147.118 12.722 147.109 12.344 147.09 11.952C147.072 11.5133 146.988 11.1587 146.838 10.888C146.698 10.608 146.502 10.4027 146.25 10.272C145.998 10.1413 145.709 10.076 145.382 10.076C145.065 10.076 144.78 10.1413 144.528 10.272C144.276 10.4027 144.076 10.608 143.926 10.888C143.777 11.1587 143.693 11.5133 143.674 11.952C143.665 12.344 143.66 12.722 143.66 13.086C143.66 13.45 143.665 13.8373 143.674 14.248C143.702 14.9013 143.87 15.3773 144.178 15.676C144.486 15.9747 144.888 16.124 145.382 16.124ZM153.844 18C153.686 18 153.56 17.958 153.466 17.874C153.373 17.79 153.308 17.692 153.27 17.58L150.414 8.62C150.396 8.57333 150.386 8.53133 150.386 8.494C150.386 8.41933 150.414 8.354 150.47 8.298C150.536 8.23267 150.61 8.2 150.694 8.2H152.43C152.58 8.2 152.696 8.242 152.78 8.326C152.864 8.41 152.916 8.48933 152.934 8.564L154.908 15.032L156.896 8.564C156.924 8.48933 156.976 8.41 157.05 8.326C157.134 8.242 157.251 8.2 157.4 8.2H159.136C159.22 8.2 159.29 8.23267 159.346 8.298C159.412 8.354 159.444 8.41933 159.444 8.494C159.444 8.53133 159.435 8.57333 159.416 8.62L156.56 17.58C156.523 17.692 156.458 17.79 156.364 17.874C156.28 17.958 156.154 18 155.986 18H153.844ZM161.101 18C160.999 18 160.915 17.9673 160.849 17.902C160.784 17.8367 160.751 17.7527 160.751 17.65V8.55C160.751 8.44733 160.784 8.36333 160.849 8.298C160.915 8.23267 160.999 8.2 161.101 8.2H162.585C162.744 8.2 162.856 8.23733 162.921 8.312C162.996 8.37733 163.043 8.42867 163.061 8.466L166.477 13.856V8.55C166.477 8.44733 166.51 8.36333 166.575 8.298C166.641 8.23267 166.725 8.2 166.827 8.2H168.507C168.61 8.2 168.694 8.23267 168.759 8.298C168.825 8.36333 168.857 8.44733 168.857 8.55V17.65C168.857 17.7433 168.825 17.8273 168.759 17.902C168.694 17.9673 168.61 18 168.507 18H167.009C166.86 18 166.748 17.9627 166.673 17.888C166.608 17.8133 166.566 17.762 166.547 17.734L163.131 12.554V17.65C163.131 17.7527 163.099 17.8367 163.033 17.902C162.968 17.9673 162.884 18 162.781 18H161.101ZM170.254 18C170.179 18 170.109 17.972 170.044 17.916C169.988 17.8507 169.96 17.7807 169.96 17.706C169.96 17.6593 169.965 17.6173 169.974 17.58L173.264 8.592C173.292 8.48933 173.348 8.40067 173.432 8.326C173.525 8.242 173.651 8.2 173.81 8.2H175.882C176.041 8.2 176.162 8.242 176.246 8.326C176.339 8.40067 176.4 8.48933 176.428 8.592L179.704 17.58C179.723 17.6173 179.732 17.6593 179.732 17.706C179.732 17.7807 179.699 17.8507 179.634 17.916C179.578 17.972 179.508 18 179.424 18H177.702C177.562 18 177.455 17.9673 177.38 17.902C177.315 17.8273 177.273 17.762 177.254 17.706L176.708 16.278H172.97L172.438 17.706C172.419 17.762 172.377 17.8273 172.312 17.902C172.247 17.9673 172.135 18 171.976 18H170.254ZM173.544 14.262H176.148L174.832 10.566L173.544 14.262ZM51.33 33C51.2367 33 51.1527 32.9673 51.078 32.902C51.0127 32.8367 50.98 32.7527 50.98 32.65V23.55C50.98 23.4473 51.0127 23.3633 51.078 23.298C51.1527 23.2327 51.2367 23.2 51.33 23.2H52.842C52.9913 23.2 53.1033 23.242 53.178 23.326C53.262 23.4007 53.3133 23.4613 53.332 23.508L55.796 27.932L58.26 23.508C58.288 23.4613 58.3347 23.4007 58.4 23.326C58.4747 23.242 58.5913 23.2 58.75 23.2H60.248C60.3507 23.2 60.4347 23.2327 60.5 23.298C60.5747 23.3633 60.612 23.4473 60.612 23.55V32.65C60.612 32.7527 60.5747 32.8367 60.5 32.902C60.4347 32.9673 60.3507 33 60.248 33H58.582C58.4793 33 58.3907 32.9673 58.316 32.902C58.2507 32.8367 58.218 32.7527 58.218 32.65V27.4L56.636 30.326C56.5987 30.41 56.5427 30.4847 56.468 30.55C56.3933 30.6153 56.2907 30.648 56.16 30.648H55.432C55.3013 30.648 55.1987 30.6153 55.124 30.55C55.0493 30.4847 54.9887 30.41 54.942 30.326L53.36 27.4V32.65C53.36 32.7527 53.3273 32.8367 53.262 32.902C53.1967 32.9673 53.1127 33 53.01 33H51.33ZM62.9101 33C62.8074 33 62.7234 32.9673 62.6581 32.902C62.5927 32.8367 62.5601 32.7527 62.5601 32.65V23.55C62.5601 23.4473 62.5927 23.3633 62.6581 23.298C62.7234 23.2327 62.8074 23.2 62.9101 23.2H69.4481C69.5507 23.2 69.6347 23.2327 69.7001 23.298C69.7654 23.3633 69.7981 23.4473 69.7981 23.55V24.866C69.7981 24.9687 69.7654 25.0527 69.7001 25.118C69.6347 25.1833 69.5507 25.216 69.4481 25.216H64.9821V27.106H69.1401C69.2427 27.106 69.3267 27.1433 69.3921 27.218C69.4574 27.2833 69.4901 27.3673 69.4901 27.47V28.688C69.4901 28.7813 69.4574 28.8653 69.3921 28.94C69.3267 29.0053 69.2427 29.038 69.1401 29.038H64.9821V30.984H69.5601C69.6627 30.984 69.7467 31.0167 69.8121 31.082C69.8774 31.1473 69.9101 31.2313 69.9101 31.334V32.65C69.9101 32.7527 69.8774 32.8367 69.8121 32.902C69.7467 32.9673 69.6627 33 69.5601 33H62.9101ZM65.4721 22.5C65.3787 22.5 65.2947 22.486 65.2201 22.458C65.1547 22.4207 65.0707 22.3553 64.9681 22.262L63.5401 20.75C63.4654 20.6753 63.4281 20.6007 63.4281 20.526C63.4281 20.3953 63.5027 20.33 63.6521 20.33H64.3521C64.4361 20.33 64.5201 20.3393 64.6041 20.358C64.6881 20.3673 64.7674 20.3907 64.8421 20.428L66.0601 21.114L67.2921 20.428C67.3667 20.3907 67.4414 20.3673 67.5161 20.358C67.6001 20.3393 67.6841 20.33 67.7681 20.33H68.4821C68.6221 20.33 68.6921 20.3953 68.6921 20.526C68.6921 20.6007 68.6547 20.6753 68.5801 20.75L67.1521 22.262C67.0587 22.3553 66.9747 22.4207 66.9001 22.458C66.8254 22.486 66.7461 22.5 66.6621 22.5H65.4721ZM71.8515 33C71.7488 33 71.6648 32.9673 71.5995 32.902C71.5342 32.8367 71.5015 32.7527 71.5015 32.65V23.55C71.5015 23.4473 71.5342 23.3633 71.5995 23.298C71.6648 23.2327 71.7488 23.2 71.8515 23.2H73.3355C73.4942 23.2 73.6062 23.2373 73.6715 23.312C73.7462 23.3773 73.7928 23.4287 73.8115 23.466L77.2275 28.856V23.55C77.2275 23.4473 77.2602 23.3633 77.3255 23.298C77.3908 23.2327 77.4748 23.2 77.5775 23.2H79.2575C79.3602 23.2 79.4442 23.2327 79.5095 23.298C79.5748 23.3633 79.6075 23.4473 79.6075 23.55V32.65C79.6075 32.7433 79.5748 32.8273 79.5095 32.902C79.4442 32.9673 79.3602 33 79.2575 33H77.7595C77.6102 33 77.4982 32.9627 77.4235 32.888C77.3582 32.8133 77.3162 32.762 77.2975 32.734L73.8815 27.554V32.65C73.8815 32.7527 73.8488 32.8367 73.7835 32.902C73.7182 32.9673 73.6342 33 73.5315 33H71.8515ZM81.914 33C81.8113 33 81.7273 32.9673 81.662 32.902C81.5967 32.8367 81.564 32.7527 81.564 32.65V23.55C81.564 23.4473 81.5967 23.3633 81.662 23.298C81.7273 23.2327 81.8113 23.2 81.914 23.2H83.79C83.8927 23.2 83.9767 23.2327 84.042 23.298C84.1073 23.3633 84.14 23.4473 84.14 23.55V32.65C84.14 32.7527 84.1073 32.8367 84.042 32.902C83.9767 32.9673 83.8927 33 83.79 33H81.914ZM81.984 22.5C81.8347 22.5 81.76 22.4253 81.76 22.276C81.76 22.2013 81.7833 22.1407 81.83 22.094L83.062 20.596C83.1553 20.484 83.2347 20.414 83.3 20.386C83.3653 20.3487 83.4587 20.33 83.58 20.33H85.54C85.7173 20.33 85.806 20.4233 85.806 20.61C85.806 20.6753 85.7827 20.7313 85.736 20.778L83.874 22.304C83.7993 22.3693 83.7247 22.4207 83.65 22.458C83.5753 22.486 83.4727 22.5 83.342 22.5H81.984ZM86.453 33C86.3504 33 86.2664 32.9673 86.201 32.902C86.1357 32.8367 86.103 32.7527 86.103 32.65V23.55C86.103 23.4473 86.1357 23.3633 86.201 23.298C86.2664 23.2327 86.3504 23.2 86.453 23.2H87.937C88.0957 23.2 88.2077 23.2373 88.273 23.312C88.3477 23.3773 88.3944 23.4287 88.413 23.466L91.829 28.856V23.55C91.829 23.4473 91.8617 23.3633 91.927 23.298C91.9924 23.2327 92.0764 23.2 92.179 23.2H93.859C93.9617 23.2 94.0457 23.2327 94.111 23.298C94.1764 23.3633 94.209 23.4473 94.209 23.55V32.65C94.209 32.7433 94.1764 32.8273 94.111 32.902C94.0457 32.9673 93.9617 33 93.859 33H92.361C92.2117 33 92.0997 32.9627 92.025 32.888C91.9597 32.8133 91.9177 32.762 91.899 32.734L88.483 27.554V32.65C88.483 32.7527 88.4504 32.8367 88.385 32.902C88.3197 32.9673 88.2357 33 88.133 33H86.453Z" fill="white"/>
</svg>
