<svg width="39" height="43" viewBox="0 0 39 43" fill="none" xmlns="http://www.w3.org/2000/svg">
<path d="M18.8887 16.0905C19.2175 16.3895 19.7825 16.3895 20.1113 16.0905L37.5589 0.225632C38.0705 -0.239531 39 0.0625787 39 0.694013V28.1603C39 28.3556 38.9012 28.5418 38.728 28.6731L20.0577 42.8202C19.7414 43.0599 19.2586 43.0599 18.9423 42.8202L0.272046 28.6731C0.0987941 28.5418 0 28.3556 0 28.1603V0.694015C0 0.0625811 0.929501 -0.239529 1.44107 0.225633L18.8887 16.0905Z" fill="#2473B5"/>
<path fill-rule="evenodd" clip-rule="evenodd" d="M39 28.1633C38.999 28.3575 38.9003 28.5425 38.728 28.6731L20.0578 42.8202C19.7744 43.0349 19.3577 43.0573 19.0465 42.8875V16.2024C19.3776 16.3831 19.8305 16.3458 20.1113 16.0905L37.5589 0.225632C37.7295 0.0705562 37.9465 0.000756649 38.16 6.121e-06C38.1623 -2.04381e-06 38.1647 -2.03685e-06 38.167 6.121e-06C38.5904 0.0014937 38.998 0.274011 39 0.690881V28.1633Z" fill="#0D5088"/>
</svg>
