<svg width="39" height="70" viewBox="0 0 39 70" fill="none" xmlns="http://www.w3.org/2000/svg">
<path d="M18.8887 16.0905C19.2175 16.3895 19.7825 16.3895 20.1113 16.0905L37.5589 0.225632C38.0705 -0.239531 39 0.0625787 39 0.694013V28.1603C39 28.3556 38.9012 28.5418 38.728 28.6731L20.0577 42.8202C19.7414 43.0599 19.2586 43.0599 18.9423 42.8202L0.272046 28.6731C0.0987941 28.5418 0 28.3556 0 28.1603V0.694015C0 0.0625811 0.929501 -0.239529 1.44107 0.225633L18.8887 16.0905Z" fill="#2473B5"/>
<path fill-rule="evenodd" clip-rule="evenodd" d="M39 28.1633C38.999 28.3575 38.9003 28.5425 38.728 28.6731L20.0578 42.8202C19.7744 43.0349 19.3577 43.0573 19.0465 42.8875V16.2024C19.3776 16.3831 19.8305 16.3458 20.1113 16.0905L37.5589 0.225632C37.7295 0.0705562 37.9465 0.000756649 38.16 6.121e-06C38.1623 -2.04381e-06 38.1646 -2.03685e-06 38.167 6.121e-06C38.5904 0.0014937 38.998 0.274011 39 0.690881V28.1633Z" fill="#0D5088"/>
<path d="M2.136 54.06C1.768 54.06 1.448 54 1.176 53.88C0.904 53.76 0.692 53.58 0.54 53.34C0.388 53.096 0.304 52.792 0.288 52.428C0.284 52.256 0.282 52.084 0.282 51.912C0.282 51.74 0.284 51.566 0.288 51.39C0.304 51.03 0.388 50.728 0.54 50.484C0.696 50.236 0.91 50.05 1.182 49.926C1.454 49.802 1.772 49.74 2.136 49.74C2.496 49.74 2.812 49.802 3.084 49.926C3.36 50.05 3.576 50.236 3.732 50.484C3.888 50.728 3.972 51.03 3.984 51.39C3.992 51.566 3.996 51.74 3.996 51.912C3.996 52.084 3.992 52.256 3.984 52.428C3.968 52.792 3.884 53.096 3.732 53.34C3.58 53.58 3.368 53.76 3.096 53.88C2.824 54 2.504 54.06 2.136 54.06ZM2.136 53.196C2.348 53.196 2.52 53.132 2.652 53.004C2.788 52.876 2.86 52.672 2.868 52.392C2.876 52.216 2.88 52.05 2.88 51.894C2.88 51.738 2.876 51.576 2.868 51.408C2.86 51.22 2.824 51.068 2.76 50.952C2.7 50.832 2.616 50.744 2.508 50.688C2.4 50.632 2.276 50.604 2.136 50.604C2 50.604 1.878 50.632 1.77 50.688C1.662 50.744 1.576 50.832 1.512 50.952C1.448 51.068 1.412 51.22 1.404 51.408C1.4 51.576 1.398 51.738 1.398 51.894C1.398 52.05 1.4 52.216 1.404 52.392C1.416 52.672 1.488 52.876 1.62 53.004C1.752 53.132 1.924 53.196 2.136 53.196ZM4.84148 54C4.79748 54 4.76148 53.986 4.73348 53.958C4.70548 53.93 4.69148 53.894 4.69148 53.85V49.95C4.69148 49.906 4.70548 49.87 4.73348 49.842C4.76148 49.814 4.79748 49.8 4.84148 49.8H6.67148C7.01548 49.8 7.29748 49.848 7.51748 49.944C7.73748 50.04 7.89948 50.178 8.00348 50.358C8.11148 50.534 8.16548 50.744 8.16548 50.988C8.16548 51.132 8.13748 51.26 8.08148 51.372C8.02948 51.48 7.96348 51.57 7.88348 51.642C7.80748 51.714 7.73548 51.766 7.66748 51.798C7.81948 51.87 7.95348 51.988 8.06948 52.152C8.18948 52.316 8.24948 52.508 8.24948 52.728C8.24948 52.992 8.18948 53.22 8.06948 53.412C7.95348 53.6 7.78148 53.746 7.55348 53.85C7.32948 53.95 7.05348 54 6.72548 54H4.84148ZM5.76548 53.22H6.60548C6.77748 53.22 6.90748 53.17 6.99548 53.07C7.08348 52.97 7.12748 52.856 7.12748 52.728C7.12748 52.588 7.08148 52.47 6.98948 52.374C6.90148 52.278 6.77348 52.23 6.60548 52.23H5.76548V53.22ZM5.76548 51.468H6.55148C6.71548 51.468 6.83748 51.426 6.91748 51.342C7.00148 51.258 7.04348 51.15 7.04348 51.018C7.04348 50.89 7.00148 50.786 6.91748 50.706C6.83748 50.622 6.71548 50.58 6.55148 50.58H5.76548V51.468ZM9.06609 54C9.02209 54 8.98609 53.986 8.95809 53.958C8.93009 53.93 8.91609 53.894 8.91609 53.85V49.95C8.91609 49.906 8.93009 49.87 8.95809 49.842C8.98609 49.814 9.02209 49.8 9.06609 49.8H11.8681C11.9121 49.8 11.9481 49.814 11.9761 49.842C12.0041 49.87 12.0181 49.906 12.0181 49.95V50.514C12.0181 50.558 12.0041 50.594 11.9761 50.622C11.9481 50.65 11.9121 50.664 11.8681 50.664H9.95409V51.474H11.7361C11.7801 51.474 11.8161 51.49 11.8441 51.522C11.8721 51.55 11.8861 51.586 11.8861 51.63V52.152C11.8861 52.192 11.8721 52.228 11.8441 52.26C11.8161 52.288 11.7801 52.302 11.7361 52.302H9.95409V53.136H11.9161C11.9601 53.136 11.9961 53.15 12.0241 53.178C12.0521 53.206 12.0661 53.242 12.0661 53.286V53.85C12.0661 53.894 12.0521 53.93 12.0241 53.958C11.9961 53.986 11.9601 54 11.9161 54H9.06609ZM14.435 54.06C14.055 54.06 13.729 53.998 13.457 53.874C13.189 53.75 12.979 53.568 12.827 53.328C12.679 53.088 12.597 52.79 12.581 52.434C12.577 52.27 12.575 52.094 12.575 51.906C12.575 51.718 12.577 51.538 12.581 51.366C12.597 51.018 12.681 50.724 12.833 50.484C12.985 50.24 13.197 50.056 13.469 49.932C13.741 49.804 14.063 49.74 14.435 49.74C14.699 49.74 14.943 49.774 15.167 49.842C15.391 49.906 15.587 50.002 15.755 50.13C15.923 50.254 16.053 50.406 16.145 50.586C16.241 50.762 16.291 50.962 16.295 51.186C16.299 51.222 16.287 51.252 16.259 51.276C16.235 51.3 16.205 51.312 16.169 51.312H15.359C15.307 51.312 15.267 51.302 15.239 51.282C15.211 51.258 15.187 51.216 15.167 51.156C15.111 50.944 15.019 50.8 14.891 50.724C14.767 50.644 14.613 50.604 14.429 50.604C14.209 50.604 14.035 50.666 13.907 50.79C13.779 50.91 13.709 51.112 13.697 51.396C13.685 51.724 13.685 52.06 13.697 52.404C13.709 52.688 13.779 52.892 13.907 53.016C14.035 53.136 14.209 53.196 14.429 53.196C14.613 53.196 14.769 53.156 14.897 53.076C15.025 52.996 15.115 52.852 15.167 52.644C15.183 52.584 15.205 52.544 15.233 52.524C15.265 52.5 15.307 52.488 15.359 52.488H16.169C16.205 52.488 16.235 52.5 16.259 52.524C16.287 52.548 16.299 52.578 16.295 52.614C16.291 52.838 16.241 53.04 16.145 53.22C16.053 53.396 15.923 53.548 15.755 53.676C15.587 53.8 15.391 53.896 15.167 53.964C14.943 54.028 14.699 54.06 14.435 54.06ZM17.0759 54C17.0319 54 16.9959 53.986 16.9679 53.958C16.9399 53.93 16.9259 53.894 16.9259 53.85V49.95C16.9259 49.906 16.9399 49.87 16.9679 49.842C16.9959 49.814 17.0319 49.8 17.0759 49.8H17.7119C17.7799 49.8 17.8279 49.816 17.8559 49.848C17.8879 49.876 17.9079 49.898 17.9159 49.914L19.3799 52.224V49.95C19.3799 49.906 19.3939 49.87 19.4219 49.842C19.4499 49.814 19.4859 49.8 19.5299 49.8H20.2499C20.2939 49.8 20.3299 49.814 20.3579 49.842C20.3859 49.87 20.3999 49.906 20.3999 49.95V53.85C20.3999 53.89 20.3859 53.926 20.3579 53.958C20.3299 53.986 20.2939 54 20.2499 54H19.6079C19.5439 54 19.4959 53.984 19.4639 53.952C19.4359 53.92 19.4179 53.898 19.4099 53.886L17.9459 51.666V53.85C17.9459 53.894 17.9319 53.93 17.9039 53.958C17.8759 53.986 17.8399 54 17.7959 54H17.0759ZM21.3884 54C21.3444 54 21.3084 53.986 21.2804 53.958C21.2524 53.93 21.2384 53.894 21.2384 53.85V49.95C21.2384 49.906 21.2524 49.87 21.2804 49.842C21.3084 49.814 21.3444 49.8 21.3884 49.8H22.1924C22.2364 49.8 22.2724 49.814 22.3004 49.842C22.3284 49.87 22.3424 49.906 22.3424 49.95V53.85C22.3424 53.894 22.3284 53.93 22.3004 53.958C22.2724 53.986 22.2364 54 22.1924 54H21.3884ZM21.4184 49.5C21.3544 49.5 21.3224 49.468 21.3224 49.404C21.3224 49.372 21.3324 49.346 21.3524 49.326L21.8804 48.684C21.9204 48.636 21.9544 48.606 21.9824 48.594C22.0104 48.578 22.0504 48.57 22.1024 48.57H22.9424C23.0184 48.57 23.0564 48.61 23.0564 48.69C23.0564 48.718 23.0464 48.742 23.0264 48.762L22.2284 49.416C22.1964 49.444 22.1644 49.466 22.1324 49.482C22.1004 49.494 22.0564 49.5 22.0004 49.5H21.4184ZM0.57 61C0.526 61 0.49 60.986 0.462 60.958C0.434 60.93 0.42 60.894 0.42 60.85V56.95C0.42 56.906 0.434 56.87 0.462 56.842C0.49 56.814 0.526 56.8 0.57 56.8H1.326C1.37 56.8 1.406 56.814 1.434 56.842C1.462 56.87 1.476 56.906 1.476 56.95V58.282L2.586 56.914C2.602 56.89 2.628 56.866 2.664 56.842C2.704 56.814 2.756 56.8 2.82 56.8H3.684C3.72 56.8 3.75 56.814 3.774 56.842C3.798 56.866 3.81 56.894 3.81 56.926C3.81 56.954 3.802 56.978 3.786 56.998L2.352 58.81L3.9 60.802C3.916 60.818 3.924 60.842 3.924 60.874C3.924 60.906 3.91 60.936 3.882 60.964C3.858 60.988 3.83 61 3.798 61H2.904C2.832 61 2.776 60.984 2.736 60.952C2.7 60.92 2.676 60.896 2.664 60.88L1.476 59.398V60.85C1.476 60.894 1.462 60.93 1.434 60.958C1.406 60.986 1.37 61 1.326 61H0.57ZM4.54266 61C4.49866 61 4.46266 60.986 4.43466 60.958C4.40666 60.93 4.39266 60.894 4.39266 60.85V56.95C4.39266 56.906 4.40666 56.87 4.43466 56.842C4.46266 56.814 4.49866 56.8 4.54266 56.8H5.17866C5.24666 56.8 5.29466 56.816 5.32266 56.848C5.35466 56.876 5.37466 56.898 5.38266 56.914L6.84666 59.224V56.95C6.84666 56.906 6.86066 56.87 6.88866 56.842C6.91666 56.814 6.95266 56.8 6.99666 56.8H7.71666C7.76066 56.8 7.79666 56.814 7.82466 56.842C7.85266 56.87 7.86666 56.906 7.86666 56.95V60.85C7.86666 60.89 7.85266 60.926 7.82466 60.958C7.79666 60.986 7.76066 61 7.71666 61H7.07466C7.01066 61 6.96266 60.984 6.93066 60.952C6.90266 60.92 6.88466 60.898 6.87666 60.886L5.41266 58.666V60.85C5.41266 60.894 5.39866 60.93 5.37066 60.958C5.34266 60.986 5.30666 61 5.26266 61H4.54266ZM8.85516 61C8.81116 61 8.77516 60.986 8.74716 60.958C8.71916 60.93 8.70516 60.894 8.70516 60.85V56.95C8.70516 56.906 8.71916 56.87 8.74716 56.842C8.77516 56.814 8.81116 56.8 8.85516 56.8H9.65916C9.70316 56.8 9.73916 56.814 9.76716 56.842C9.79516 56.87 9.80916 56.906 9.80916 56.95V60.85C9.80916 60.894 9.79516 60.93 9.76716 60.958C9.73916 60.986 9.70316 61 9.65916 61H8.85516ZM10.8005 61C10.7565 61 10.7205 60.986 10.6925 60.958C10.6645 60.93 10.6505 60.894 10.6505 60.85V56.95C10.6505 56.906 10.6645 56.87 10.6925 56.842C10.7205 56.814 10.7565 56.8 10.8005 56.8H11.5745C11.6185 56.8 11.6545 56.814 11.6825 56.842C11.7105 56.87 11.7245 56.906 11.7245 56.95V58.396H13.2065V56.95C13.2065 56.906 13.2205 56.87 13.2485 56.842C13.2765 56.814 13.3125 56.8 13.3565 56.8H14.1305C14.1745 56.8 14.2105 56.814 14.2385 56.842C14.2665 56.87 14.2805 56.906 14.2805 56.95V60.85C14.2805 60.894 14.2665 60.93 14.2385 60.958C14.2105 60.986 14.1745 61 14.1305 61H13.3565C13.3125 61 13.2765 60.986 13.2485 60.958C13.2205 60.93 13.2065 60.894 13.2065 60.85V59.356H11.7245V60.85C11.7245 60.894 11.7105 60.93 11.6825 60.958C11.6545 60.986 11.6185 61 11.5745 61H10.8005ZM16.8372 61.06C16.4692 61.06 16.1492 61 15.8772 60.88C15.6052 60.76 15.3932 60.58 15.2412 60.34C15.0892 60.096 15.0052 59.792 14.9892 59.428C14.9852 59.256 14.9832 59.084 14.9832 58.912C14.9832 58.74 14.9852 58.566 14.9892 58.39C15.0052 58.03 15.0892 57.728 15.2412 57.484C15.3972 57.236 15.6112 57.05 15.8832 56.926C16.1552 56.802 16.4732 56.74 16.8372 56.74C17.1972 56.74 17.5132 56.802 17.7852 56.926C18.0612 57.05 18.2772 57.236 18.4332 57.484C18.5892 57.728 18.6732 58.03 18.6852 58.39C18.6932 58.566 18.6972 58.74 18.6972 58.912C18.6972 59.084 18.6932 59.256 18.6852 59.428C18.6692 59.792 18.5852 60.096 18.4332 60.34C18.2812 60.58 18.0692 60.76 17.7972 60.88C17.5252 61 17.2052 61.06 16.8372 61.06ZM16.8372 60.196C17.0492 60.196 17.2212 60.132 17.3532 60.004C17.4892 59.876 17.5612 59.672 17.5692 59.392C17.5772 59.216 17.5812 59.05 17.5812 58.894C17.5812 58.738 17.5772 58.576 17.5692 58.408C17.5612 58.22 17.5252 58.068 17.4612 57.952C17.4012 57.832 17.3172 57.744 17.2092 57.688C17.1012 57.632 16.9772 57.604 16.8372 57.604C16.7012 57.604 16.5792 57.632 16.4712 57.688C16.3632 57.744 16.2772 57.832 16.2132 57.952C16.1492 58.068 16.1132 58.22 16.1052 58.408C16.1012 58.576 16.0992 58.738 16.0992 58.894C16.0992 59.05 16.1012 59.216 16.1052 59.392C16.1172 59.672 16.1892 59.876 16.3212 60.004C16.4532 60.132 16.6252 60.196 16.8372 60.196ZM20.4638 61C20.3958 61 20.3418 60.982 20.3018 60.946C20.2618 60.91 20.2338 60.868 20.2178 60.82L18.9938 56.98C18.9858 56.96 18.9818 56.942 18.9818 56.926C18.9818 56.894 18.9938 56.866 19.0178 56.842C19.0458 56.814 19.0778 56.8 19.1138 56.8H19.8578C19.9218 56.8 19.9718 56.818 20.0078 56.854C20.0438 56.89 20.0658 56.924 20.0738 56.956L20.9198 59.728L21.7718 56.956C21.7838 56.924 21.8058 56.89 21.8378 56.854C21.8738 56.818 21.9238 56.8 21.9878 56.8H22.7318C22.7678 56.8 22.7978 56.814 22.8218 56.842C22.8498 56.866 22.8638 56.894 22.8638 56.926C22.8638 56.942 22.8598 56.96 22.8518 56.98L21.6278 60.82C21.6118 60.868 21.5838 60.91 21.5438 60.946C21.5078 60.982 21.4538 61 21.3818 61H20.4638ZM23.5739 61C23.5299 61 23.4939 60.986 23.4659 60.958C23.4379 60.93 23.4239 60.894 23.4239 60.85V56.95C23.4239 56.906 23.4379 56.87 23.4659 56.842C23.4939 56.814 23.5299 56.8 23.5739 56.8H24.2099C24.2779 56.8 24.3259 56.816 24.3539 56.848C24.3859 56.876 24.4059 56.898 24.4139 56.914L25.8779 59.224V56.95C25.8779 56.906 25.8919 56.87 25.9199 56.842C25.9479 56.814 25.9839 56.8 26.0279 56.8H26.7479C26.7919 56.8 26.8279 56.814 26.8559 56.842C26.8839 56.87 26.8979 56.906 26.8979 56.95V60.85C26.8979 60.89 26.8839 60.926 26.8559 60.958C26.8279 60.986 26.7919 61 26.7479 61H26.1059C26.0419 61 25.9939 60.984 25.9619 60.952C25.9339 60.92 25.9159 60.898 25.9079 60.886L24.4439 58.666V60.85C24.4439 60.894 24.4299 60.93 24.4019 60.958C24.3739 60.986 24.3379 61 24.2939 61H23.5739ZM27.4964 61C27.4644 61 27.4344 60.988 27.4064 60.964C27.3824 60.936 27.3704 60.906 27.3704 60.874C27.3704 60.854 27.3724 60.836 27.3764 60.82L28.7864 56.968C28.7984 56.924 28.8224 56.886 28.8584 56.854C28.8984 56.818 28.9524 56.8 29.0204 56.8H29.9084C29.9764 56.8 30.0284 56.818 30.0644 56.854C30.1044 56.886 30.1304 56.924 30.1424 56.968L31.5464 60.82C31.5544 60.836 31.5584 60.854 31.5584 60.874C31.5584 60.906 31.5444 60.936 31.5164 60.964C31.4924 60.988 31.4624 61 31.4264 61H30.6884C30.6284 61 30.5824 60.986 30.5504 60.958C30.5224 60.926 30.5044 60.898 30.4964 60.874L30.2624 60.262H28.6604L28.4324 60.874C28.4244 60.898 28.4064 60.926 28.3784 60.958C28.3504 60.986 28.3024 61 28.2344 61H27.4964ZM28.9064 59.398H30.0224L29.4584 57.814L28.9064 59.398Z" fill="black"/>
<path d="M0.57 68C0.53 68 0.494 67.986 0.462 67.958C0.434 67.93 0.42 67.894 0.42 67.85V63.95C0.42 63.906 0.434 63.87 0.462 63.842C0.494 63.814 0.53 63.8 0.57 63.8H1.218C1.282 63.8 1.33 63.818 1.362 63.854C1.398 63.886 1.42 63.912 1.428 63.932L2.484 65.828L3.54 63.932C3.552 63.912 3.572 63.886 3.6 63.854C3.632 63.818 3.682 63.8 3.75 63.8H4.392C4.436 63.8 4.472 63.814 4.5 63.842C4.532 63.87 4.548 63.906 4.548 63.95V67.85C4.548 67.894 4.532 67.93 4.5 67.958C4.472 67.986 4.436 68 4.392 68H3.678C3.634 68 3.596 67.986 3.564 67.958C3.536 67.93 3.522 67.894 3.522 67.85V65.6L2.844 66.854C2.828 66.89 2.804 66.922 2.772 66.95C2.74 66.978 2.696 66.992 2.64 66.992H2.328C2.272 66.992 2.228 66.978 2.196 66.95C2.164 66.922 2.138 66.89 2.118 66.854L1.44 65.6V67.85C1.44 67.894 1.426 67.93 1.398 67.958C1.37 67.986 1.334 68 1.29 68H0.57ZM5.53289 68C5.48889 68 5.45289 67.986 5.42489 67.958C5.39689 67.93 5.38289 67.894 5.38289 67.85V63.95C5.38289 63.906 5.39689 63.87 5.42489 63.842C5.45289 63.814 5.48889 63.8 5.53289 63.8H8.33489C8.37889 63.8 8.41489 63.814 8.44289 63.842C8.47089 63.87 8.48489 63.906 8.48489 63.95V64.514C8.48489 64.558 8.47089 64.594 8.44289 64.622C8.41489 64.65 8.37889 64.664 8.33489 64.664H6.42089V65.474H8.20289C8.24689 65.474 8.28289 65.49 8.31089 65.522C8.33889 65.55 8.35289 65.586 8.35289 65.63V66.152C8.35289 66.192 8.33889 66.228 8.31089 66.26C8.28289 66.288 8.24689 66.302 8.20289 66.302H6.42089V67.136H8.38289C8.42689 67.136 8.46289 67.15 8.49089 67.178C8.51889 67.206 8.53289 67.242 8.53289 67.286V67.85C8.53289 67.894 8.51889 67.93 8.49089 67.958C8.46289 67.986 8.42689 68 8.38289 68H5.53289ZM6.63089 63.5C6.59089 63.5 6.55489 63.494 6.52289 63.482C6.49489 63.466 6.45889 63.438 6.41489 63.398L5.80289 62.75C5.77089 62.718 5.75489 62.686 5.75489 62.654C5.75489 62.598 5.78689 62.57 5.85089 62.57H6.15089C6.18689 62.57 6.22289 62.574 6.25889 62.582C6.29489 62.586 6.32889 62.596 6.36089 62.612L6.88289 62.906L7.41089 62.612C7.44289 62.596 7.47489 62.586 7.50689 62.582C7.54289 62.574 7.57889 62.57 7.61489 62.57H7.92089C7.98089 62.57 8.01089 62.598 8.01089 62.654C8.01089 62.686 7.99489 62.718 7.96289 62.75L7.35089 63.398C7.31089 63.438 7.27489 63.466 7.24289 63.482C7.21089 63.494 7.17689 63.5 7.14089 63.5H6.63089ZM9.36492 68C9.32092 68 9.28492 67.986 9.25692 67.958C9.22892 67.93 9.21492 67.894 9.21492 67.85V63.95C9.21492 63.906 9.22892 63.87 9.25692 63.842C9.28492 63.814 9.32092 63.8 9.36492 63.8H10.0009C10.0689 63.8 10.1169 63.816 10.1449 63.848C10.1769 63.876 10.1969 63.898 10.2049 63.914L11.6689 66.224V63.95C11.6689 63.906 11.6829 63.87 11.7109 63.842C11.7389 63.814 11.7749 63.8 11.8189 63.8H12.5389C12.5829 63.8 12.6189 63.814 12.6469 63.842C12.6749 63.87 12.6889 63.906 12.6889 63.95V67.85C12.6889 67.89 12.6749 67.926 12.6469 67.958C12.6189 67.986 12.5829 68 12.5389 68H11.8969C11.8329 68 11.7849 67.984 11.7529 67.952C11.7249 67.92 11.7069 67.898 11.6989 67.886L10.2349 65.666V67.85C10.2349 67.894 10.2209 67.93 10.1929 67.958C10.1649 67.986 10.1289 68 10.0849 68H9.36492ZM13.6774 68C13.6334 68 13.5974 67.986 13.5694 67.958C13.5414 67.93 13.5274 67.894 13.5274 67.85V63.95C13.5274 63.906 13.5414 63.87 13.5694 63.842C13.5974 63.814 13.6334 63.8 13.6774 63.8H14.4814C14.5254 63.8 14.5614 63.814 14.5894 63.842C14.6174 63.87 14.6314 63.906 14.6314 63.95V67.85C14.6314 67.894 14.6174 67.93 14.5894 67.958C14.5614 67.986 14.5254 68 14.4814 68H13.6774ZM13.7074 63.5C13.6434 63.5 13.6114 63.468 13.6114 63.404C13.6114 63.372 13.6214 63.346 13.6414 63.326L14.1694 62.684C14.2094 62.636 14.2434 62.606 14.2714 62.594C14.2994 62.578 14.3394 62.57 14.3914 62.57H15.2314C15.3074 62.57 15.3454 62.61 15.3454 62.69C15.3454 62.718 15.3354 62.742 15.3154 62.762L14.5174 63.416C14.4854 63.444 14.4534 63.466 14.4214 63.482C14.3894 63.494 14.3454 63.5 14.2894 63.5H13.7074ZM15.6227 68C15.5787 68 15.5427 67.986 15.5147 67.958C15.4867 67.93 15.4727 67.894 15.4727 67.85V63.95C15.4727 63.906 15.4867 63.87 15.5147 63.842C15.5427 63.814 15.5787 63.8 15.6227 63.8H16.2587C16.3267 63.8 16.3747 63.816 16.4027 63.848C16.4347 63.876 16.4547 63.898 16.4627 63.914L17.9267 66.224V63.95C17.9267 63.906 17.9407 63.87 17.9687 63.842C17.9967 63.814 18.0327 63.8 18.0767 63.8H18.7967C18.8407 63.8 18.8767 63.814 18.9047 63.842C18.9327 63.87 18.9467 63.906 18.9467 63.95V67.85C18.9467 67.89 18.9327 67.926 18.9047 67.958C18.8767 67.986 18.8407 68 18.7967 68H18.1547C18.0907 68 18.0427 67.984 18.0107 67.952C17.9827 67.92 17.9647 67.898 17.9567 67.886L16.4927 65.666V67.85C16.4927 67.894 16.4787 67.93 16.4507 67.958C16.4227 67.986 16.3867 68 16.3427 68H15.6227Z" fill="#2473B5"/>
</svg>
